<svg id="visual" viewBox="0 0 800 600" xmlns="http://www.w3.org/2000/svg" xmlns:xlink="http://www.w3.org/1999/xlink" version="1.1" preserveAspectRatio="xMidYMid meet">
<path d="M0 387L21.5 389.3C43 391.7 86 396.3 128.8 402C171.7 407.7 214.3 414.3 257.2 421C300 427.7 343 434.3 385.8 426.2C428.7 418 471.3 395 514.2 383.7C557 372.3 600 372.7 642.8 379.2C685.7 385.7 728.3 398.3 771.2 396.7C814 395 857 379 878.5 371L900 363L900 601L878.5 601C857 601 814 601 771.2 601C728.3 601 685.7 601 642.8 601C600 601 557 601 514.2 601C471.3 601 428.7 601 385.8 601C343 601 300 601 257.2 601C214.3 601 171.7 601 128.8 601C86 601 43 601 21.5 601L0 601Z" fill="#d1f2ff" opacity=".25"></path>
<path d="M0 418L21.5 413.8C43 409.7 86 401.3 128.8 397.3C171.7 393.3 214.3 393.7 257.2 407.2C300 420.7 343 447.3 385.8 451.2C428.7 455 471.3 436 514.2 431.2C557 426.3 600 435.7 642.8 436.8C685.7 438 728.3 431 771.2 423.5C814 416 857 408 878.5 404L900 400L900 601L878.5 601C857 601 814 601 771.2 601C728.3 601 685.7 601 642.8 601C600 601 557 601 514.2 601C471.3 601 428.7 601 385.8 601C343 601 300 601 257.2 601C214.3 601 171.7 601 128.8 601C86 601 43 601 21.5 601L0 601Z" fill="#d1edff" opacity=".35"></path>
<path d="M0 452L21.5 456.5C43 461 86 470 128.8 474C171.7 478 214.3 477 257.2 471C300 465 343 454 385.8 449.7C428.7 445.3 471.3 447.7 514.2 452.5C557 457.3 600 464.7 642.8 468C685.7 471.3 728.3 470.7 771.2 468.7C814 466.7 857 463.3 878.5 461.7L900 460L900 601L878.5 601C857 601 814 601 771.2 601C728.3 601 685.7 601 642.8 601C600 601 557 601 514.2 601C471.3 601 428.7 601 385.8 601C343 601 300 601 257.2 601C214.3 601 171.7 601 128.8 601C86 601 43 601 21.5 601L0 601Z" fill="#d3e8ff" opacity=".45"></path>
<path d="M0 494L21.5 495.7C43 497.3 86 500.7 128.8 508.3C171.7 516 214.3 528 257.2 528C300 528 343 516 385.8 513.3C428.7 510.7 471.3 517.3 514.2 514.2C557 511 600 498 642.8 491.8C685.7 485.7 728.3 486.3 771.2 495.2C814 504 857 521 878.5 529.5L900 538L900 601L878.5 601C857 601 814 601 771.2 601C728.3 601 685.7 601 642.8 601C600 601 557 601 514.2 601C471.3 601 428.7 601 385.8 601C343 601 300 601 257.2 601C214.3 601 171.7 601 128.8 601C86 601 43 601 21.5 601L0 601Z" fill="#d9e2ff" opacity=".55"></path>
<path d="M0 555L21.5 552.8C43 550.7 86 546.3 128.8 549C171.7 551.7 214.3 561.3 257.2 564.8C300 568.3 343 565.7 385.8 558C428.7 550.3 471.3 537.7 514.2 536.7C557 535.7 600 546.3 642.8 552C685.7 557.7 728.3 558.3 771.2 559.3C814 560.3 857 561.7 878.5 562.3L900 563L900 601L878.5 601C857 601 814 601 771.2 601C728.3 601 685.7 601 642.8 601C600 601 557 601 514.2 601C471.3 601 428.7 601 385.8 601C343 601 300 601 257.2 601C214.3 601 171.7 601 128.8 601C86 601 43 601 21.5 601L0 601Z" fill="#e4daff" opacity=".65"></path></svg>