<svg id="visual" viewBox="0 0 800 600" xmlns="http://www.w3.org/2000/svg" xmlns:xlink="http://www.w3.org/1999/xlink" version="1.1">
<path d="M0 259L30 240.7C60 222.3 120 185.7 180 172.2C240 158.7 300 168.3 360 167.2C420 166 480 154 540 147.7C600 141.3 660 140.7 720 157.3C780 174 840 208 870 225L900 242L900 601L870 601C840 601 780 601 720 601C660 601 600 601 540 601C480 601 420 601 360 601C300 601 240 601 180 601C120 601 60 601 30 601L0 601Z" fill="#cfcef9" opacity="0.15"></path>
<path d="M0 322L30 312.8C60 303.7 120 285.3 180 263.7C240 242 300 217 360 223C420 229 480 266 540 283C600 300 660 297 720 295.3C780 293.7 840 293.3 870 293.2L900 293L900 601L870 601C840 601 780 601 720 601C660 601 600 601 540 601C480 601 420 601 360 601C300 601 240 601 180 601C120 601 60 601 30 601L0 601Z" fill="#c5dfff" opacity="0.2"></path>
<path d="M0 238L30 249C60 260 120 282 180 295.7C240 309.3 300 314.7 360 318.8C420 323 480 326 540 313.3C600 300.7 660 272.3 720 260.2C780 248 840 252 870 254L900 256L900 601L870 601C840 601 780 601 720 601C660 601 600 601 540 601C480 601 420 601 360 601C300 601 240 601 180 601C120 601 60 601 30 601L0 601Z" fill="#c8ecff" opacity="0.25"></path>
<path d="M0 346L30 333.8C60 321.7 120 297.3 180 285.7C240 274 300 275 360 280.3C420 285.7 480 295.3 540 306C600 316.7 660 328.3 720 337.3C780 346.3 840 352.7 870 355.8L900 359L900 601L870 601C840 601 780 601 720 601C660 601 600 601 540 601C480 601 420 601 360 601C300 601 240 601 180 601C120 601 60 601 30 601L0 601Z" fill="#d4f8ff" opacity="0.3"></path>
<path d="M0 371L30 376.5C60 382 120 393 180 396.5C240 400 300 396 360 394.5C420 393 480 394 540 398.2C600 402.3 660 409.7 720 410.5C780 411.3 840 405.7 870 402.8L900 400L900 601L870 601C840 601 780 601 720 601C660 601 600 601 540 601C480 601 420 601 360 601C300 601 240 601 180 601C120 601 60 601 30 601L0 601Z" fill="#dffeff" opacity="0.35"></path>
<path d="M0 432L30 422C60 412 120 392 180 386.5C240 381 300 390 360 388C420 386 480 373 540 373.3C600 373.7 660 387.3 720 395C780 402.7 840 404.3 870 405.2L900 406L900 601L870 601C840 601 780 601 720 601C660 601 600 601 540 601C480 601 420 601 360 601C300 601 240 601 180 601C120 601 60 601 30 601L0 601Z" fill="#dffeff" opacity="0.4"></path>
<path d="M0 409L30 407.3C60 405.7 120 402.3 180 413.5C240 424.7 300 450.3 360 461.3C420 472.3 480 468.7 540 456C600 443.3 660 421.7 720 411.2C780 400.7 840 401.3 870 401.7L900 402L900 601L870 601C840 601 780 601 720 601C660 601 600 601 540 601C480 601 420 601 360 601C300 601 240 601 180 601C120 601 60 601 30 601L0 601Z" fill="#d4f8ff" opacity="0.45"></path>
<path d="M0 444L30 451.2C60 458.3 120 472.7 180 472.3C240 472 300 457 360 458.5C420 460 480 478 540 489.8C600 501.7 660 507.3 720 500.2C780 493 840 473 870 463L900 453L900 601L870 601C840 601 780 601 720 601C660 601 600 601 540 601C480 601 420 601 360 601C300 601 240 601 180 601C120 601 60 601 30 601L0 601Z" fill="#c8ecff" opacity="0.5"></path>
<path d="M0 488L30 487.2C60 486.3 120 484.7 180 491.3C240 498 300 513 360 522.2C420 531.3 480 534.7 540 529C600 523.3 660 508.7 720 507.2C780 505.7 840 517.3 870 523.2L900 529L900 601L870 601C840 601 780 601 720 601C660 601 600 601 540 601C480 601 420 601 360 601C300 601 240 601 180 601C120 601 60 601 30 601L0 601Z" fill="#c5dfff" opacity="0.55"></path>
<path d="M0 554L30 557C60 560 120 566 180 562.5C240 559 300 546 360 538.7C420 531.3 480 529.7 540 535.7C600 541.7 660 555.3 720 557.5C780 559.7 840 550.3 870 545.7L900 541L900 601L870 601C840 601 780 601 720 601C660 601 600 601 540 601C480 601 420 601 360 601C300 601 240 601 180 601C120 601 60 601 30 601L0 601Z" fill="#cfcef9" opacity="0.6"></path></svg>