<svg id="visual" viewBox="0 0 900 600" width="900" height="600" xmlns="http://www.w3.org/2000/svg" xmlns:xlink="http://www.w3.org/1999/xlink" version="1.1"><path d="M872 600L855.5 583.3C839 566.7 806 533.3 803 500C800 466.7 827 433.3 824 400C821 366.7 788 333.3 768.5 300C749 266.7 743 233.3 752 200C761 166.7 785 133.3 791 100C797 66.7 785 33.3 779 16.7L773 0L900 0L900 16.7C900 33.3 900 66.7 900 100C900 133.3 900 166.7 900 200C900 233.3 900 266.7 900 300C900 333.3 900 366.7 900 400C900 433.3 900 466.7 900 500C900 533.3 900 566.7 900 583.3L900 600Z" fill="#e4e4e4"></path><path d="M764 600L737 583.3C710 566.7 656 533.3 647 500C638 466.7 674 433.3 684.5 400C695 366.7 680 333.3 668 300C656 266.7 647 233.3 659 200C671 166.7 704 133.3 710 100C716 66.7 695 33.3 684.5 16.7L674 0L774 0L780 16.7C786 33.3 798 66.7 792 100C786 133.3 762 166.7 753 200C744 233.3 750 266.7 769.5 300C789 333.3 822 366.7 825 400C828 433.3 801 466.7 804 500C807 533.3 840 566.7 856.5 583.3L873 600Z" fill="#e8e8e8"></path><path d="M683 600L663.5 583.3C644 566.7 605 533.3 605 500C605 466.7 644 433.3 644 400C644 366.7 605 333.3 591.5 300C578 266.7 590 233.3 615.5 200C641 166.7 680 133.3 684.5 100C689 66.7 659 33.3 644 16.7L629 0L675 0L685.5 16.7C696 33.3 717 66.7 711 100C705 133.3 672 166.7 660 200C648 233.3 657 266.7 669 300C681 333.3 696 366.7 685.5 400C675 433.3 639 466.7 648 500C657 533.3 711 566.7 738 583.3L765 600Z" fill="#ebebeb"></path><path d="M377 600L387.5 583.3C398 566.7 419 533.3 458 500C497 466.7 554 433.3 533 400C512 366.7 413 333.3 363.5 300C314 266.7 314 233.3 354.5 200C395 166.7 476 133.3 518 100C560 66.7 563 33.3 564.5 16.7L566 0L630 0L645 16.7C660 33.3 690 66.7 685.5 100C681 133.3 642 166.7 616.5 200C591 233.3 579 266.7 592.5 300C606 333.3 645 366.7 645 400C645 433.3 606 466.7 606 500C606 533.3 645 566.7 664.5 583.3L684 600Z" fill="#efefef"></path><path d="M296 600L317 583.3C338 566.7 380 533.3 426.5 500C473 466.7 524 433.3 504.5 400C485 366.7 395 333.3 350 300C305 266.7 305 233.3 339.5 200C374 166.7 443 133.3 474.5 100C506 66.7 500 33.3 497 16.7L494 0L567 0L565.5 16.7C564 33.3 561 66.7 519 100C477 133.3 396 166.7 355.5 200C315 233.3 315 266.7 364.5 300C414 333.3 513 366.7 534 400C555 433.3 498 466.7 459 500C420 533.3 399 566.7 388.5 583.3L378 600Z" fill="#f2f2f2"></path><path d="M242 600L254 583.3C266 566.7 290 533.3 330.5 500C371 466.7 428 433.3 417.5 400C407 366.7 329 333.3 296 300C263 266.7 275 233.3 300.5 200C326 166.7 365 133.3 389 100C413 66.7 422 33.3 426.5 16.7L431 0L495 0L498 16.7C501 33.3 507 66.7 475.5 100C444 133.3 375 166.7 340.5 200C306 233.3 306 266.7 351 300C396 333.3 486 366.7 505.5 400C525 433.3 474 466.7 427.5 500C381 533.3 339 566.7 318 583.3L297 600Z" fill="#f4f4f4"></path><path d="M125 600L132.5 583.3C140 566.7 155 533.3 161 500C167 466.7 164 433.3 159.5 400C155 366.7 149 333.3 150.5 300C152 266.7 161 233.3 173 200C185 166.7 200 133.3 194 100C188 66.7 161 33.3 147.5 16.7L134 0L432 0L427.5 16.7C423 33.3 414 66.7 390 100C366 133.3 327 166.7 301.5 200C276 233.3 264 266.7 297 300C330 333.3 408 366.7 418.5 400C429 433.3 372 466.7 331.5 500C291 533.3 267 566.7 255 583.3L243 600Z" fill="#f5f5f5"></path><path d="M98 600L107 583.3C116 566.7 134 533.3 143 500C152 466.7 152 433.3 144.5 400C137 366.7 122 333.3 117.5 300C113 266.7 119 233.3 123.5 200C128 166.7 131 133.3 126.5 100C122 66.7 110 33.3 104 16.7L98 0L135 0L148.5 16.7C162 33.3 189 66.7 195 100C201 133.3 186 166.7 174 200C162 233.3 153 266.7 151.5 300C150 333.3 156 366.7 160.5 400C165 433.3 168 466.7 162 500C156 533.3 141 566.7 133.5 583.3L126 600Z" fill="#f6f6f6"></path><path d="M8 600L18.5 583.3C29 566.7 50 533.3 57.5 500C65 466.7 59 433.3 59 400C59 366.7 65 333.3 59 300C53 266.7 35 233.3 24.5 200C14 166.7 11 133.3 20 100C29 66.7 50 33.3 60.5 16.7L71 0L99 0L105 16.7C111 33.3 123 66.7 127.5 100C132 133.3 129 166.7 124.5 200C120 233.3 114 266.7 118.5 300C123 333.3 138 366.7 145.5 400C153 433.3 153 466.7 144 500C135 533.3 117 566.7 108 583.3L99 600Z" fill="#f7f7f7"></path><path d="M0 600L0 583.3C0 566.7 0 533.3 0 500C0 466.7 0 433.3 0 400C0 366.7 0 333.3 0 300C0 266.7 0 233.3 0 200C0 166.7 0 133.3 0 100C0 66.7 0 33.3 0 16.7L0 0L72 0L61.5 16.7C51 33.3 30 66.7 21 100C12 133.3 15 166.7 25.5 200C36 233.3 54 266.7 60 300C66 333.3 60 366.7 60 400C60 433.3 66 466.7 58.5 500C51 533.3 30 566.7 19.5 583.3L9 600Z" fill="#f8f8f8"></path></svg>