<svg id="visual" viewBox="0 0 900 600" width="900" height="600" xmlns="http://www.w3.org/2000/svg" xmlns:xlink="http://www.w3.org/1999/xlink" version="1.1"><rect x="0" y="0" width="900" height="600" fill="#ffffff"></rect><path d="M0 432L21.5 429.3C43 426.7 86 421.3 128.8 377.3C171.7 333.3 214.3 250.7 257.2 250.8C300 251 343 334 385.8 380.7C428.7 427.3 471.3 437.7 514.2 437.3C557 437 600 426 642.8 409.7C685.7 393.3 728.3 371.7 771.2 330.3C814 289 857 228 878.5 197.5L900 167L900 601L878.5 601C857 601 814 601 771.2 601C728.3 601 685.7 601 642.8 601C600 601 557 601 514.2 601C471.3 601 428.7 601 385.8 601C343 601 300 601 257.2 601C214.3 601 171.7 601 128.8 601C86 601 43 601 21.5 601L0 601Z" fill="#e3f3ff" stroke-linecap="round" stroke-linejoin="miter"></path></svg>