<svg id="visual" viewBox="0 0 900 600" width="900" height="600" xmlns="http://www.w3.org/2000/svg" xmlns:xlink="http://www.w3.org/1999/xlink" version="1.1"><path d="M0 172L30 171.8C60 171.7 120 171.3 180 193C240 214.7 300 258.3 360 273.8C420 289.3 480 276.7 540 277C600 277.3 660 290.7 720 271.8C780 253 840 202 870 176.5L900 151L900 601L870 601C840 601 780 601 720 601C660 601 600 601 540 601C480 601 420 601 360 601C300 601 240 601 180 601C120 601 60 601 30 601L0 601Z" fill="#cfcef9"></path><path d="M0 293L30 278.3C60 263.7 120 234.3 180 224.3C240 214.3 300 223.7 360 240.8C420 258 480 283 540 291.8C600 300.7 660 293.3 720 278C780 262.7 840 239.3 870 227.7L900 216L900 601L870 601C840 601 780 601 720 601C660 601 600 601 540 601C480 601 420 601 360 601C300 601 240 601 180 601C120 601 60 601 30 601L0 601Z" fill="#c4e6ff"></path><path d="M0 300L30 300.5C60 301 120 302 180 303.3C240 304.7 300 306.3 360 313C420 319.7 480 331.3 540 338.3C600 345.3 660 347.7 720 341C780 334.3 840 318.7 870 310.8L900 303L900 601L870 601C840 601 780 601 720 601C660 601 600 601 540 601C480 601 420 601 360 601C300 601 240 601 180 601C120 601 60 601 30 601L0 601Z" fill="#d4f8ff"></path><path d="M0 410L30 411.7C60 413.3 120 416.7 180 414.8C240 413 300 406 360 408.3C420 410.7 480 422.3 540 409.5C600 396.7 660 359.3 720 358.3C780 357.3 840 392.7 870 410.3L900 428L900 601L870 601C840 601 780 601 720 601C660 601 600 601 540 601C480 601 420 601 360 601C300 601 240 601 180 601C120 601 60 601 30 601L0 601Z" fill="#dffeff"></path><path d="M0 380L30 389.7C60 399.3 120 418.7 180 430.5C240 442.3 300 446.7 360 442.8C420 439 480 427 540 416.2C600 405.3 660 395.7 720 399.8C780 404 840 422 870 431L900 440L900 601L870 601C840 601 780 601 720 601C660 601 600 601 540 601C480 601 420 601 360 601C300 601 240 601 180 601C120 601 60 601 30 601L0 601Z" fill="#d4f8ff"></path><path d="M0 521L30 517.7C60 514.3 120 507.7 180 498.3C240 489 300 477 360 474.2C420 471.3 480 477.7 540 475.5C600 473.3 660 462.7 720 466.3C780 470 840 488 870 497L900 506L900 601L870 601C840 601 780 601 720 601C660 601 600 601 540 601C480 601 420 601 360 601C300 601 240 601 180 601C120 601 60 601 30 601L0 601Z" fill="#c4e6ff"></path><path d="M0 545L30 540.2C60 535.3 120 525.7 180 525.2C240 524.7 300 533.3 360 541.2C420 549 480 556 540 549.2C600 542.3 660 521.7 720 515C780 508.3 840 515.7 870 519.3L900 523L900 601L870 601C840 601 780 601 720 601C660 601 600 601 540 601C480 601 420 601 360 601C300 601 240 601 180 601C120 601 60 601 30 601L0 601Z" fill="#cfcef9"></path></svg>